<?xml version="1.0" encoding="UTF-8" standalone="no"?>
<!DOCTYPE svg PUBLIC "-//W3C//DTD SVG 1.1//EN"
 "http://www.w3.org/Graphics/SVG/1.1/DTD/svg11.dtd">
<!-- Generated by graphviz version 2.40.1 (20161225.0304)
 -->
<!-- Title: Tree Pages: 1 -->
<svg width="749pt" height="581pt"
 viewBox="0.00 0.00 749.00 581.00" xmlns="http://www.w3.org/2000/svg" xmlns:xlink="http://www.w3.org/1999/xlink">
<g id="graph0" class="graph" transform="scale(1 1) rotate(0) translate(4 577)">
<title>Tree</title>
<polygon fill="#ffffff" stroke="transparent" points="-4,4 -4,-577 745,-577 745,4 -4,4"/>
<!-- 0 -->
<g id="node1" class="node">
<title>0</title>
<polygon fill="none" stroke="#000000" points="458,-573 331,-573 331,-505 458,-505 458,-573"/>
<text text-anchor="middle" x="394.5" y="-557.8" font-family="Times,serif" font-size="14.00" fill="#000000">X[2] &lt;= 2.45</text>
<text text-anchor="middle" x="394.5" y="-542.8" font-family="Times,serif" font-size="14.00" fill="#000000">gini = 0.667</text>
<text text-anchor="middle" x="394.5" y="-527.8" font-family="Times,serif" font-size="14.00" fill="#000000">samples = 150</text>
<text text-anchor="middle" x="394.5" y="-512.8" font-family="Times,serif" font-size="14.00" fill="#000000">value = [50, 50, 50]</text>
</g>
<!-- 1 -->
<g id="node2" class="node">
<title>1</title>
<polygon fill="none" stroke="#000000" points="384,-461.5 271,-461.5 271,-408.5 384,-408.5 384,-461.5"/>
<text text-anchor="middle" x="327.5" y="-446.3" font-family="Times,serif" font-size="14.00" fill="#000000">gini = 0.0</text>
<text text-anchor="middle" x="327.5" y="-431.3" font-family="Times,serif" font-size="14.00" fill="#000000">samples = 50</text>
<text text-anchor="middle" x="327.5" y="-416.3" font-family="Times,serif" font-size="14.00" fill="#000000">value = [50, 0, 0]</text>
</g>
<!-- 0&#45;&gt;1 -->
<g id="edge1" class="edge">
<title>0&#45;&gt;1</title>
<path fill="none" stroke="#000000" d="M372.5617,-504.9465C365.3946,-493.8215 357.4227,-481.4473 350.2007,-470.237"/>
<polygon fill="#000000" stroke="#000000" points="352.9574,-468.0532 344.5993,-461.5422 347.0728,-471.8442 352.9574,-468.0532"/>
<text text-anchor="middle" x="339.3123" y="-482.2767" font-family="Times,serif" font-size="14.00" fill="#000000">True</text>
</g>
<!-- 2 -->
<g id="node3" class="node">
<title>2</title>
<polygon fill="none" stroke="#000000" points="522.5,-469 402.5,-469 402.5,-401 522.5,-401 522.5,-469"/>
<text text-anchor="middle" x="462.5" y="-453.8" font-family="Times,serif" font-size="14.00" fill="#000000">X[3] &lt;= 1.75</text>
<text text-anchor="middle" x="462.5" y="-438.8" font-family="Times,serif" font-size="14.00" fill="#000000">gini = 0.5</text>
<text text-anchor="middle" x="462.5" y="-423.8" font-family="Times,serif" font-size="14.00" fill="#000000">samples = 100</text>
<text text-anchor="middle" x="462.5" y="-408.8" font-family="Times,serif" font-size="14.00" fill="#000000">value = [0, 50, 50]</text>
</g>
<!-- 0&#45;&gt;2 -->
<g id="edge2" class="edge">
<title>0&#45;&gt;2</title>
<path fill="none" stroke="#000000" d="M416.7657,-504.9465C422.4602,-496.2373 428.6552,-486.7626 434.5938,-477.6801"/>
<polygon fill="#000000" stroke="#000000" points="437.6411,-479.4151 440.1842,-469.13 431.7823,-475.5843 437.6411,-479.4151"/>
<text text-anchor="middle" x="445.3058" y="-489.8998" font-family="Times,serif" font-size="14.00" fill="#000000">False</text>
</g>
<!-- 3 -->
<g id="node4" class="node">
<title>3</title>
<polygon fill="none" stroke="#000000" points="425,-365 312,-365 312,-297 425,-297 425,-365"/>
<text text-anchor="middle" x="368.5" y="-349.8" font-family="Times,serif" font-size="14.00" fill="#000000">X[2] &lt;= 4.95</text>
<text text-anchor="middle" x="368.5" y="-334.8" font-family="Times,serif" font-size="14.00" fill="#000000">gini = 0.168</text>
<text text-anchor="middle" x="368.5" y="-319.8" font-family="Times,serif" font-size="14.00" fill="#000000">samples = 54</text>
<text text-anchor="middle" x="368.5" y="-304.8" font-family="Times,serif" font-size="14.00" fill="#000000">value = [0, 49, 5]</text>
</g>
<!-- 2&#45;&gt;3 -->
<g id="edge3" class="edge">
<title>2&#45;&gt;3</title>
<path fill="none" stroke="#000000" d="M431.7209,-400.9465C423.5245,-391.8782 414.578,-381.9799 406.0625,-372.5585"/>
<polygon fill="#000000" stroke="#000000" points="408.6503,-370.2019 399.3483,-365.13 403.4571,-374.8957 408.6503,-370.2019"/>
</g>
<!-- 12 -->
<g id="node13" class="node">
<title>12</title>
<polygon fill="none" stroke="#000000" points="613,-365 500,-365 500,-297 613,-297 613,-365"/>
<text text-anchor="middle" x="556.5" y="-349.8" font-family="Times,serif" font-size="14.00" fill="#000000">X[2] &lt;= 4.85</text>
<text text-anchor="middle" x="556.5" y="-334.8" font-family="Times,serif" font-size="14.00" fill="#000000">gini = 0.043</text>
<text text-anchor="middle" x="556.5" y="-319.8" font-family="Times,serif" font-size="14.00" fill="#000000">samples = 46</text>
<text text-anchor="middle" x="556.5" y="-304.8" font-family="Times,serif" font-size="14.00" fill="#000000">value = [0, 1, 45]</text>
</g>
<!-- 2&#45;&gt;12 -->
<g id="edge12" class="edge">
<title>2&#45;&gt;12</title>
<path fill="none" stroke="#000000" d="M493.2791,-400.9465C501.4755,-391.8782 510.422,-381.9799 518.9375,-372.5585"/>
<polygon fill="#000000" stroke="#000000" points="521.5429,-374.8957 525.6517,-365.13 516.3497,-370.2019 521.5429,-374.8957"/>
</g>
<!-- 4 -->
<g id="node5" class="node">
<title>4</title>
<polygon fill="none" stroke="#000000" points="241,-261 128,-261 128,-193 241,-193 241,-261"/>
<text text-anchor="middle" x="184.5" y="-245.8" font-family="Times,serif" font-size="14.00" fill="#000000">X[3] &lt;= 1.65</text>
<text text-anchor="middle" x="184.5" y="-230.8" font-family="Times,serif" font-size="14.00" fill="#000000">gini = 0.041</text>
<text text-anchor="middle" x="184.5" y="-215.8" font-family="Times,serif" font-size="14.00" fill="#000000">samples = 48</text>
<text text-anchor="middle" x="184.5" y="-200.8" font-family="Times,serif" font-size="14.00" fill="#000000">value = [0, 47, 1]</text>
</g>
<!-- 3&#45;&gt;4 -->
<g id="edge4" class="edge">
<title>3&#45;&gt;4</title>
<path fill="none" stroke="#000000" d="M311.7926,-298.948C292.2005,-287.8742 270.0916,-275.3779 249.8629,-263.9442"/>
<polygon fill="#000000" stroke="#000000" points="251.4481,-260.8199 241.0202,-258.9462 248.0036,-266.9138 251.4481,-260.8199"/>
</g>
<!-- 7 -->
<g id="node8" class="node">
<title>7</title>
<polygon fill="none" stroke="#000000" points="421.5,-261 315.5,-261 315.5,-193 421.5,-193 421.5,-261"/>
<text text-anchor="middle" x="368.5" y="-245.8" font-family="Times,serif" font-size="14.00" fill="#000000">X[3] &lt;= 1.55</text>
<text text-anchor="middle" x="368.5" y="-230.8" font-family="Times,serif" font-size="14.00" fill="#000000">gini = 0.444</text>
<text text-anchor="middle" x="368.5" y="-215.8" font-family="Times,serif" font-size="14.00" fill="#000000">samples = 6</text>
<text text-anchor="middle" x="368.5" y="-200.8" font-family="Times,serif" font-size="14.00" fill="#000000">value = [0, 2, 4]</text>
</g>
<!-- 3&#45;&gt;7 -->
<g id="edge7" class="edge">
<title>3&#45;&gt;7</title>
<path fill="none" stroke="#000000" d="M368.5,-296.9465C368.5,-288.776 368.5,-279.9318 368.5,-271.3697"/>
<polygon fill="#000000" stroke="#000000" points="372.0001,-271.13 368.5,-261.13 365.0001,-271.13 372.0001,-271.13"/>
</g>
<!-- 5 -->
<g id="node6" class="node">
<title>5</title>
<polygon fill="none" stroke="#000000" points="113,-149.5 0,-149.5 0,-96.5 113,-96.5 113,-149.5"/>
<text text-anchor="middle" x="56.5" y="-134.3" font-family="Times,serif" font-size="14.00" fill="#000000">gini = 0.0</text>
<text text-anchor="middle" x="56.5" y="-119.3" font-family="Times,serif" font-size="14.00" fill="#000000">samples = 47</text>
<text text-anchor="middle" x="56.5" y="-104.3" font-family="Times,serif" font-size="14.00" fill="#000000">value = [0, 47, 0]</text>
</g>
<!-- 4&#45;&gt;5 -->
<g id="edge5" class="edge">
<title>4&#45;&gt;5</title>
<path fill="none" stroke="#000000" d="M142.588,-192.9465C127.9467,-181.0504 111.5474,-167.726 97.0215,-155.9237"/>
<polygon fill="#000000" stroke="#000000" points="99.1355,-153.1317 89.1673,-149.5422 94.7214,-158.5645 99.1355,-153.1317"/>
</g>
<!-- 6 -->
<g id="node7" class="node">
<title>6</title>
<polygon fill="none" stroke="#000000" points="237.5,-149.5 131.5,-149.5 131.5,-96.5 237.5,-96.5 237.5,-149.5"/>
<text text-anchor="middle" x="184.5" y="-134.3" font-family="Times,serif" font-size="14.00" fill="#000000">gini = 0.0</text>
<text text-anchor="middle" x="184.5" y="-119.3" font-family="Times,serif" font-size="14.00" fill="#000000">samples = 1</text>
<text text-anchor="middle" x="184.5" y="-104.3" font-family="Times,serif" font-size="14.00" fill="#000000">value = [0, 0, 1]</text>
</g>
<!-- 4&#45;&gt;6 -->
<g id="edge6" class="edge">
<title>4&#45;&gt;6</title>
<path fill="none" stroke="#000000" d="M184.5,-192.9465C184.5,-182.2621 184.5,-170.4254 184.5,-159.5742"/>
<polygon fill="#000000" stroke="#000000" points="188.0001,-159.5421 184.5,-149.5422 181.0001,-159.5422 188.0001,-159.5421"/>
</g>
<!-- 8 -->
<g id="node9" class="node">
<title>8</title>
<polygon fill="none" stroke="#000000" points="361.5,-149.5 255.5,-149.5 255.5,-96.5 361.5,-96.5 361.5,-149.5"/>
<text text-anchor="middle" x="308.5" y="-134.3" font-family="Times,serif" font-size="14.00" fill="#000000">gini = 0.0</text>
<text text-anchor="middle" x="308.5" y="-119.3" font-family="Times,serif" font-size="14.00" fill="#000000">samples = 3</text>
<text text-anchor="middle" x="308.5" y="-104.3" font-family="Times,serif" font-size="14.00" fill="#000000">value = [0, 0, 3]</text>
</g>
<!-- 7&#45;&gt;8 -->
<g id="edge8" class="edge">
<title>7&#45;&gt;8</title>
<path fill="none" stroke="#000000" d="M348.8538,-192.9465C342.4355,-181.8215 335.2965,-169.4473 328.829,-158.237"/>
<polygon fill="#000000" stroke="#000000" points="331.8417,-156.455 323.8128,-149.5422 325.7784,-159.9531 331.8417,-156.455"/>
</g>
<!-- 9 -->
<g id="node10" class="node">
<title>9</title>
<polygon fill="none" stroke="#000000" points="485.5,-157 379.5,-157 379.5,-89 485.5,-89 485.5,-157"/>
<text text-anchor="middle" x="432.5" y="-141.8" font-family="Times,serif" font-size="14.00" fill="#000000">X[2] &lt;= 5.45</text>
<text text-anchor="middle" x="432.5" y="-126.8" font-family="Times,serif" font-size="14.00" fill="#000000">gini = 0.444</text>
<text text-anchor="middle" x="432.5" y="-111.8" font-family="Times,serif" font-size="14.00" fill="#000000">samples = 3</text>
<text text-anchor="middle" x="432.5" y="-96.8" font-family="Times,serif" font-size="14.00" fill="#000000">value = [0, 2, 1]</text>
</g>
<!-- 7&#45;&gt;9 -->
<g id="edge9" class="edge">
<title>7&#45;&gt;9</title>
<path fill="none" stroke="#000000" d="M389.456,-192.9465C394.8155,-184.2373 400.6461,-174.7626 406.2353,-165.6801"/>
<polygon fill="#000000" stroke="#000000" points="409.2367,-167.481 411.4969,-157.13 403.2751,-163.8122 409.2367,-167.481"/>
</g>
<!-- 10 -->
<g id="node11" class="node">
<title>10</title>
<polygon fill="none" stroke="#000000" points="423.5,-53 317.5,-53 317.5,0 423.5,0 423.5,-53"/>
<text text-anchor="middle" x="370.5" y="-37.8" font-family="Times,serif" font-size="14.00" fill="#000000">gini = 0.0</text>
<text text-anchor="middle" x="370.5" y="-22.8" font-family="Times,serif" font-size="14.00" fill="#000000">samples = 2</text>
<text text-anchor="middle" x="370.5" y="-7.8" font-family="Times,serif" font-size="14.00" fill="#000000">value = [0, 2, 0]</text>
</g>
<!-- 9&#45;&gt;10 -->
<g id="edge10" class="edge">
<title>9&#45;&gt;10</title>
<path fill="none" stroke="#000000" d="M410.6411,-88.9777C404.9932,-80.187 398.9007,-70.7044 393.2104,-61.8477"/>
<polygon fill="#000000" stroke="#000000" points="396.0356,-59.7698 387.6856,-53.2485 390.1463,-63.5536 396.0356,-59.7698"/>
</g>
<!-- 11 -->
<g id="node12" class="node">
<title>11</title>
<polygon fill="none" stroke="#000000" points="547.5,-53 441.5,-53 441.5,0 547.5,0 547.5,-53"/>
<text text-anchor="middle" x="494.5" y="-37.8" font-family="Times,serif" font-size="14.00" fill="#000000">gini = 0.0</text>
<text text-anchor="middle" x="494.5" y="-22.8" font-family="Times,serif" font-size="14.00" fill="#000000">samples = 1</text>
<text text-anchor="middle" x="494.5" y="-7.8" font-family="Times,serif" font-size="14.00" fill="#000000">value = [0, 0, 1]</text>
</g>
<!-- 9&#45;&gt;11 -->
<g id="edge11" class="edge">
<title>9&#45;&gt;11</title>
<path fill="none" stroke="#000000" d="M454.3589,-88.9777C460.0068,-80.187 466.0993,-70.7044 471.7896,-61.8477"/>
<polygon fill="#000000" stroke="#000000" points="474.8537,-63.5536 477.3144,-53.2485 468.9644,-59.7698 474.8537,-63.5536"/>
</g>
<!-- 13 -->
<g id="node14" class="node">
<title>13</title>
<polygon fill="none" stroke="#000000" points="609.5,-261 503.5,-261 503.5,-193 609.5,-193 609.5,-261"/>
<text text-anchor="middle" x="556.5" y="-245.8" font-family="Times,serif" font-size="14.00" fill="#000000">X[0] &lt;= 5.95</text>
<text text-anchor="middle" x="556.5" y="-230.8" font-family="Times,serif" font-size="14.00" fill="#000000">gini = 0.444</text>
<text text-anchor="middle" x="556.5" y="-215.8" font-family="Times,serif" font-size="14.00" fill="#000000">samples = 3</text>
<text text-anchor="middle" x="556.5" y="-200.8" font-family="Times,serif" font-size="14.00" fill="#000000">value = [0, 1, 2]</text>
</g>
<!-- 12&#45;&gt;13 -->
<g id="edge13" class="edge">
<title>12&#45;&gt;13</title>
<path fill="none" stroke="#000000" d="M556.5,-296.9465C556.5,-288.776 556.5,-279.9318 556.5,-271.3697"/>
<polygon fill="#000000" stroke="#000000" points="560.0001,-271.13 556.5,-261.13 553.0001,-271.13 560.0001,-271.13"/>
</g>
<!-- 16 -->
<g id="node17" class="node">
<title>16</title>
<polygon fill="none" stroke="#000000" points="741,-253.5 628,-253.5 628,-200.5 741,-200.5 741,-253.5"/>
<text text-anchor="middle" x="684.5" y="-238.3" font-family="Times,serif" font-size="14.00" fill="#000000">gini = 0.0</text>
<text text-anchor="middle" x="684.5" y="-223.3" font-family="Times,serif" font-size="14.00" fill="#000000">samples = 43</text>
<text text-anchor="middle" x="684.5" y="-208.3" font-family="Times,serif" font-size="14.00" fill="#000000">value = [0, 0, 43]</text>
</g>
<!-- 12&#45;&gt;16 -->
<g id="edge16" class="edge">
<title>12&#45;&gt;16</title>
<path fill="none" stroke="#000000" d="M598.412,-296.9465C613.0533,-285.0504 629.4526,-271.726 643.9785,-259.9237"/>
<polygon fill="#000000" stroke="#000000" points="646.2786,-262.5645 651.8327,-253.5422 641.8645,-257.1317 646.2786,-262.5645"/>
</g>
<!-- 14 -->
<g id="node15" class="node">
<title>14</title>
<polygon fill="none" stroke="#000000" points="609.5,-149.5 503.5,-149.5 503.5,-96.5 609.5,-96.5 609.5,-149.5"/>
<text text-anchor="middle" x="556.5" y="-134.3" font-family="Times,serif" font-size="14.00" fill="#000000">gini = 0.0</text>
<text text-anchor="middle" x="556.5" y="-119.3" font-family="Times,serif" font-size="14.00" fill="#000000">samples = 1</text>
<text text-anchor="middle" x="556.5" y="-104.3" font-family="Times,serif" font-size="14.00" fill="#000000">value = [0, 1, 0]</text>
</g>
<!-- 13&#45;&gt;14 -->
<g id="edge14" class="edge">
<title>13&#45;&gt;14</title>
<path fill="none" stroke="#000000" d="M556.5,-192.9465C556.5,-182.2621 556.5,-170.4254 556.5,-159.5742"/>
<polygon fill="#000000" stroke="#000000" points="560.0001,-159.5421 556.5,-149.5422 553.0001,-159.5422 560.0001,-159.5421"/>
</g>
<!-- 15 -->
<g id="node16" class="node">
<title>15</title>
<polygon fill="none" stroke="#000000" points="733.5,-149.5 627.5,-149.5 627.5,-96.5 733.5,-96.5 733.5,-149.5"/>
<text text-anchor="middle" x="680.5" y="-134.3" font-family="Times,serif" font-size="14.00" fill="#000000">gini = 0.0</text>
<text text-anchor="middle" x="680.5" y="-119.3" font-family="Times,serif" font-size="14.00" fill="#000000">samples = 2</text>
<text text-anchor="middle" x="680.5" y="-104.3" font-family="Times,serif" font-size="14.00" fill="#000000">value = [0, 0, 2]</text>
</g>
<!-- 13&#45;&gt;15 -->
<g id="edge15" class="edge">
<title>13&#45;&gt;15</title>
<path fill="none" stroke="#000000" d="M597.1022,-192.9465C611.1547,-181.1606 626.8788,-167.9726 640.8535,-156.2519"/>
<polygon fill="#000000" stroke="#000000" points="643.4408,-158.65 648.8536,-149.5422 638.9425,-153.2866 643.4408,-158.65"/>
</g>
</g>
</svg>
